<?xml version="1.0" standalone="no"?>
<!DOCTYPE svg PUBLIC "-//W3C//DTD SVG 20010904//EN"
 "http://www.w3.org/TR/2001/REC-SVG-20010904/DTD/svg10.dtd">
<svg version="1.0" xmlns="http://www.w3.org/2000/svg"
 width="658.000000pt" height="383.000000pt" viewBox="0 0 658.000000 383.000000"
 preserveAspectRatio="xMidYMid meet">

<g transform="translate(0.000000,383.000000) scale(0.100000,-0.100000)"
fill="white" stroke="none">
<path d="M2410 3130 l0 -680 185 0 185 0 2 219 3 219 160 -175 160 -175 128
132 127 131 0 257 c0 215 -2 254 -13 242 -8 -8 -60 -70 -116 -137 -56 -68
-103 -123 -105 -123 -2 0 -162 173 -356 385 -193 212 -354 385 -356 385 -2 0
-4 -306 -4 -680z"/>
<path d="M3608 3603 l-177 -188 -1 -652 0 -653 440 0 440 0 0 160 0 160 -257
2 -258 3 -5 678 -5 678 -177 -188z"/>
<path d="M2270 2365 c0 -15 44 -89 72 -121 156 -178 449 -138 558 76 11 22 20
42 20 45 0 3 -146 5 -325 5 -179 0 -325 -2 -325 -5z"/>
<path d="M3290 2016 c0 -22 75 -129 107 -152 77 -57 114 -69 213 -69 112 0
161 18 235 86 38 35 95 121 95 144 0 3 -146 5 -325 5 -270 0 -325 -2 -325 -14z"/>
<path d="M137 1263 c-3 -21 -18 -141 -32 -268 -28 -239 -34 -259 -79 -268 -11
-2 15 -5 59 -5 60 -1 74 2 56 9 -22 9 -23 13 -18 62 4 28 12 121 19 205 6 83
15 149 19 145 4 -5 51 -102 104 -218 53 -115 98 -211 100 -214 3 -2 9 9 15 25
22 61 185 422 189 419 7 -7 39 -398 34 -411 -2 -7 -12 -15 -21 -17 -10 -3 24
-5 73 -5 72 0 83 2 58 9 -42 12 -44 22 -79 326 -16 134 -31 240 -36 235 -4 -4
-54 -110 -111 -235 -57 -126 -107 -229 -111 -230 -4 -1 -55 102 -114 230 -60
128 -111 235 -114 238 -3 3 -8 -11 -11 -32z"/>
<path d="M1006 1063 c-128 -307 -131 -312 -169 -328 -31 -14 -28 -14 53 -14
61 0 79 3 63 9 -13 5 -23 17 -23 25 0 20 162 435 169 435 3 0 30 -65 60 -145
30 -80 57 -145 61 -145 3 0 15 6 25 14 18 13 16 22 -59 200 -43 102 -79 186
-80 186 -1 0 -46 -107 -100 -237z"/>
<path d="M2245 1290 c-82 -3 -142 -7 -133 -8 36 -4 48 -41 48 -149 l0 -103 25
0 25 0 0 115 0 115 94 0 c97 0 109 -5 119 -45 2 -11 5 4 6 33 1 44 -2 52 -16
50 -10 -1 -85 -5 -168 -8z"/>
<path d="M2713 1285 c-63 -27 -92 -119 -59 -184 8 -15 57 -67 110 -115 107
-98 122 -130 92 -193 -46 -96 -192 -72 -213 36 l-7 36 -9 -43 c-6 -34 -5 -49
7 -67 31 -47 163 -59 221 -21 40 26 68 97 60 149 -6 37 -20 54 -118 149 -106
101 -112 108 -112 147 0 45 30 85 72 96 41 10 93 -13 109 -49 l13 -31 1 46 c0
44 -2 47 -31 53 -50 10 -101 6 -136 -9z"/>
<path d="M3163 1285 c-45 -19 -73 -69 -73 -130 l0 -50 109 -105 c65 -63 112
-117 116 -133 23 -90 -75 -163 -162 -121 -31 16 -41 28 -54 68 l-17 49 -7 -41
c-9 -54 -1 -76 33 -91 41 -19 125 -25 165 -12 66 22 105 100 87 176 -7 33 -28
58 -117 141 -103 97 -108 103 -108 142 0 72 62 115 132 91 24 -8 39 -21 49
-43 l13 -31 1 46 c0 44 -2 47 -31 53 -50 10 -101 6 -136 -9z"/>
<path d="M3665 1063 c-127 -306 -130 -312 -168 -328 -31 -14 -28 -14 53 -14
61 0 79 3 63 9 -13 5 -23 17 -23 26 0 21 161 434 169 434 3 0 30 -65 60 -145
29 -80 56 -145 60 -145 4 0 16 6 26 14 18 13 15 22 -60 200 -43 102 -79 186
-79 186 -1 0 -46 -107 -101 -237z"/>
<path d="M5306 1263 c-3 -21 -17 -139 -32 -263 -26 -232 -36 -265 -76 -273
-13 -2 13 -5 57 -5 60 -1 74 2 56 9 -22 9 -23 13 -18 67 3 31 11 123 18 205 7
81 16 144 20 140 4 -5 51 -104 104 -221 54 -117 99 -211 100 -210 1 2 46 103
100 225 54 123 101 221 103 219 6 -7 40 -400 35 -409 -3 -5 -15 -12 -27 -17
-14 -6 11 -9 74 -8 75 0 88 2 63 9 -42 12 -46 27 -78 314 -15 127 -29 237 -31
245 -3 8 -54 -93 -114 -225 -60 -132 -112 -240 -115 -240 -4 0 -56 105 -115
233 -59 128 -110 235 -113 238 -3 3 -8 -12 -11 -33z"/>
<path d="M6160 1028 c-109 -258 -117 -274 -150 -290 l-35 -18 85 1 c61 0 79 3
63 9 -13 5 -23 17 -23 27 0 21 161 433 169 433 3 0 30 -65 60 -145 29 -80 56
-145 60 -145 4 0 15 6 26 14 17 12 14 23 -60 200 -43 102 -78 186 -79 186 -1
0 -53 -123 -116 -272z"/>
<path d="M1527 1280 c39 -16 43 -39 43 -283 0 -249 -1 -252 -50 -270 -8 -3 26
-5 75 -6 69 0 84 3 65 10 -13 6 -28 15 -32 22 -4 7 -8 123 -8 260 l0 247 66 0
c36 0 74 -5 85 -10 29 -16 49 -64 49 -119 0 -41 -5 -56 -28 -82 -24 -27 -37
-33 -86 -37 l-57 -5 35 -29 c19 -15 64 -71 100 -122 72 -104 119 -136 192
-136 l39 1 -35 15 c-47 20 -70 43 -147 147 -36 48 -70 87 -76 87 -6 0 9 10 33
23 67 34 85 65 85 147 0 59 -3 72 -25 95 -42 46 -77 55 -217 54 -84 0 -121 -3
-106 -9z"/>
<path d="M4390 1279 c13 -6 28 -15 32 -22 10 -16 10 -488 0 -504 -4 -7 -19
-16 -32 -22 -18 -7 23 -10 146 -10 l170 -1 19 53 c29 83 29 84 0 40 -37 -54
-59 -63 -160 -63 l-85 0 0 243 c0 261 4 280 53 290 12 2 -21 5 -73 5 -72 1
-89 -2 -70 -9z"/>
<path d="M4890 1283 c50 -18 50 -21 50 -278 0 -257 0 -260 -50 -278 -8 -3 26
-5 75 -5 50 0 83 2 75 5 -50 18 -50 21 -50 278 0 257 0 260 50 278 8 3 -25 5
-75 5 -49 0 -83 -2 -75 -5z"/>
<path d="M2372 1025 c-8 -10 -31 -15 -62 -15 -28 0 -50 -4 -50 -10 0 -5 25
-10 55 -10 41 0 56 -4 64 -17 8 -14 10 -9 11 25 0 47 0 47 -18 27z"/>
<path d="M2160 874 c0 -102 -8 -130 -43 -144 -14 -6 40 -8 147 -7 l168 2 24
65 c13 36 18 56 11 45 -7 -11 -26 -34 -43 -52 -32 -33 -33 -33 -123 -33 l-91
0 0 110 0 110 -25 0 c-25 0 -25 0 -25 -96z"/>
<path d="M1241 881 c-11 -7 -11 -16 3 -57 22 -64 20 -83 -6 -94 -16 -6 6 -9
72 -8 52 0 86 3 75 5 -33 8 -52 31 -81 99 -27 64 -36 72 -63 55z"/>
<path d="M3901 881 c-11 -7 -11 -16 3 -57 22 -64 20 -83 -6 -94 -16 -6 6 -9
72 -8 52 0 86 3 75 5 -33 8 -52 31 -81 99 -27 64 -36 72 -63 55z"/>
<path d="M6411 881 c-11 -7 -11 -16 3 -57 22 -64 20 -83 -6 -94 -16 -6 6 -9
72 -8 52 0 86 3 75 5 -33 8 -52 31 -81 99 -27 64 -36 72 -63 55z"/>
<path d="M5144 339 c-19 -22 -19 -22 4 -10 12 6 22 16 22 21 0 15 -5 12 -26
-11z"/>
<path d="M726 228 c-16 -40 -39 -92 -52 -116 -20 -38 -21 -42 -5 -42 12 0 20
12 27 38 9 36 10 37 54 37 44 0 45 -1 54 -37 8 -32 14 -38 35 -38 17 0 22 3
13 8 -6 5 -32 57 -55 116 l-43 107 -28 -73z m50 -35 l13 -33 -35 0 c-39 0 -40
6 -18 58 11 25 18 32 21 22 3 -8 12 -30 19 -47z"/>
<path d="M1364 281 c-43 -26 -61 -79 -45 -132 15 -51 53 -79 106 -79 54 0 91
28 105 79 29 107 -74 188 -166 132z m118 -21 c28 -29 30 -35 26 -87 -6 -68
-30 -93 -88 -93 -53 0 -80 35 -80 102 0 41 5 54 29 79 39 38 74 38 113 -1z"/>
<path d="M1625 291 c-32 -13 -55 -46 -62 -84 -13 -82 30 -137 107 -137 36 0
52 5 68 23 12 13 22 30 22 38 0 9 -5 7 -12 -6 -17 -32 -39 -45 -78 -45 -65 0
-104 72 -80 145 22 66 90 86 135 40 22 -21 25 -22 25 -6 0 33 -76 52 -125 32z"/>
<path d="M2041 286 c-34 -19 -50 -54 -51 -109 0 -41 5 -53 29 -78 24 -23 38
-29 73 -29 47 0 88 22 88 47 0 11 -6 8 -21 -11 -21 -26 -65 -35 -104 -20 -24
10 -45 58 -45 104 0 79 90 130 140 80 16 -16 20 -17 20 -5 0 32 -85 45 -129
21z"/>
<path d="M2655 293 l-40 -4 3 -95 c2 -65 -1 -100 -9 -110 -11 -13 -4 -15 51
-12 46 2 65 7 68 18 4 12 2 13 -9 2 -7 -6 -28 -12 -46 -12 l-33 0 0 51 0 52
35 -6 c19 -3 35 -2 35 4 0 5 -16 9 -35 9 -35 0 -35 0 -35 45 l0 45 40 0 c22 0
40 5 40 10 0 6 -6 9 -12 8 -7 -1 -31 -3 -53 -5z"/>
<path d="M3078 289 c-33 -19 -23 -70 22 -114 52 -51 53 -88 2 -93 -26 -3 -34
1 -42 20 l-10 23 3 -25 c2 -21 8 -25 42 -28 29 -3 43 1 52 14 24 32 15 61 -33
108 -47 47 -53 70 -22 90 13 8 23 8 38 -2 17 -10 20 -10 20 3 0 17 -45 20 -72
4z"/>
<path d="M3206 278 c-24 -33 -20 -44 29 -97 25 -26 45 -55 45 -63 0 -37 -60
-52 -80 -20 -10 15 -10 15 -8 -3 4 -27 62 -33 89 -9 29 26 23 51 -27 104 -47
50 -53 74 -22 94 13 8 23 8 39 -2 18 -11 20 -11 17 0 -3 7 -18 14 -35 16 -23
2 -35 -3 -47 -20z"/>
<path d="M3385 291 l-40 -6 0 -108 0 -108 54 3 c38 2 56 8 59 18 4 12 2 13 -9
2 -7 -6 -28 -12 -46 -12 l-33 0 0 51 0 52 35 -6 c19 -3 35 -2 35 4 0 5 -16 9
-35 9 -35 0 -35 0 -35 45 l0 45 40 0 c22 0 40 5 40 10 0 11 -1 11 -65 1z"/>
<path d="M3516 284 c-28 -27 -19 -63 25 -104 33 -30 40 -43 37 -66 -2 -24 -8
-29 -34 -32 -24 -2 -33 2 -42 20 l-12 23 3 -25 c2 -21 8 -25 40 -28 48 -4 67
11 67 53 0 25 -9 41 -39 68 -44 40 -52 55 -39 80 10 20 39 22 56 5 9 -9 12 -8
12 5 0 22 -52 23 -74 1z"/>
<path d="M3651 281 c-30 -30 -26 -46 25 -101 56 -60 58 -93 6 -98 -26 -3 -34
1 -42 20 l-10 23 3 -25 c2 -21 8 -25 42 -28 29 -3 43 1 52 14 23 31 14 59 -32
104 -48 47 -54 74 -23 94 13 8 23 7 39 -2 18 -11 20 -11 17 0 -7 22 -55 21
-77 -1z"/>
<path d="M3834 291 c-58 -25 -82 -108 -49 -171 19 -37 43 -50 95 -50 52 0 76
13 95 50 40 78 -1 167 -80 175 -22 3 -50 1 -61 -4z m93 -16 c28 -19 47 -78 39
-118 -21 -103 -151 -103 -172 0 -13 66 30 133 86 133 14 0 35 -7 47 -15z"/>
<path d="M4345 198 c-21 -55 -45 -107 -53 -114 -11 -12 -9 -14 13 -14 16 0 24
4 20 11 -4 5 -1 23 5 40 11 25 18 29 51 29 41 0 59 -18 59 -59 0 -16 6 -21 28
-21 15 0 22 3 15 8 -6 4 -30 54 -53 112 -23 58 -43 106 -44 107 -1 1 -19 -43
-41 -99z m58 7 l16 -45 -35 0 c-19 0 -34 4 -34 9 0 12 29 81 34 81 2 0 11 -20
19 -45z"/>
<path d="M5574 291 c-40 -17 -64 -60 -64 -113 0 -41 5 -54 29 -79 40 -39 109
-41 146 -4 14 13 25 30 25 37 0 7 -6 4 -12 -7 -17 -33 -40 -45 -80 -45 -63 0
-97 51 -85 128 12 74 93 107 142 57 27 -26 34 -21 12 9 -15 20 -82 30 -113 17z"/>
<path d="M5780 190 c-23 -60 -48 -111 -54 -114 -6 -2 -2 -5 10 -5 16 -1 23 8
30 37 8 34 12 37 49 40 44 4 65 -14 65 -55 0 -18 5 -23 28 -23 15 0 22 3 15 8
-6 4 -30 54 -53 112 -23 58 -43 106 -44 108 -2 1 -22 -47 -46 -108z m63 15
l16 -45 -35 0 c-19 0 -34 4 -34 9 0 12 29 81 34 81 2 0 11 -20 19 -45z"/>
<path d="M898 194 c2 -67 0 -100 -10 -111 -11 -14 -4 -15 64 -12 64 4 81 8
102 28 31 30 42 78 26 125 -16 49 -47 66 -122 66 l-63 0 3 -96z m136 67 c39
-43 37 -130 -5 -164 -13 -10 -38 -17 -65 -17 l-44 0 0 100 0 100 48 0 c35 0
54 -5 66 -19z"/>
<path d="M1148 180 c25 -60 49 -107 52 -102 4 4 24 47 45 97 20 50 42 96 47
103 7 8 6 12 -3 12 -8 0 -28 -36 -47 -85 -19 -47 -37 -85 -42 -85 -9 0 -66
150 -62 163 1 4 -7 7 -17 7 -17 0 -14 -12 27 -110z"/>
<path d="M1836 195 c-21 -53 -45 -102 -53 -110 -13 -13 -11 -15 12 -15 14 0
24 4 21 9 -3 5 -1 23 5 40 10 28 15 31 53 31 38 0 43 -3 53 -31 7 -18 10 -36
7 -40 -3 -5 6 -9 21 -9 24 0 25 1 11 23 -8 12 -29 58 -46 102 -17 44 -35 83
-39 88 -4 4 -24 -36 -45 -88z m68 -12 c7 -21 4 -23 -28 -23 -20 0 -36 2 -36 5
0 2 7 23 17 46 16 41 16 41 28 18 7 -13 16 -34 19 -46z"/>
<path d="M2228 180 c-3 -110 -3 -110 21 -110 19 0 21 2 11 15 -8 10 -11 45 -8
110 2 69 0 95 -9 95 -8 0 -13 -34 -15 -110z"/>
<path d="M2350 186 c-23 -58 -47 -107 -53 -110 -7 -2 1 -5 16 -5 16 -1 26 3
23 8 -3 5 -1 23 5 40 10 28 15 31 54 31 41 0 44 -2 51 -32 4 -18 7 -36 6 -40
-1 -5 9 -8 23 -8 24 0 25 1 11 23 -8 12 -29 58 -46 102 -17 44 -35 84 -39 88
-5 5 -27 -39 -51 -97z m79 -18 c1 -5 -15 -8 -35 -8 -38 0 -38 1 -12 70 10 25
10 25 28 -15 10 -22 19 -43 19 -47z"/>
<path d="M2927 283 c-3 -5 -20 -44 -37 -88 -17 -44 -38 -90 -46 -102 -13 -21
-13 -23 6 -23 14 0 20 7 20 21 0 41 18 59 61 59 34 0 41 -4 50 -27 5 -14 8
-32 5 -40 -4 -8 3 -13 18 -13 24 0 24 1 -21 108 -51 120 -49 116 -56 105z m21
-72 c16 -52 17 -51 -23 -51 l-34 0 17 45 c9 25 19 45 23 45 3 0 11 -17 17 -39z"/>
<path d="M4028 180 l-3 -110 24 0 c20 0 22 3 13 12 -8 8 -12 46 -12 105 l0 93
28 0 c54 0 71 -53 28 -88 -24 -18 -24 -20 -9 -43 28 -42 66 -79 82 -79 13 0
13 2 -1 13 -8 6 -28 29 -43 50 l-28 38 21 15 c25 17 30 72 10 92 -7 7 -33 12
-59 12 l-48 0 -3 -110z"/>
<path d="M4218 180 c-3 -110 -3 -110 21 -110 19 0 21 3 12 14 -8 10 -11 47 -9
110 2 69 0 96 -9 96 -8 0 -13 -34 -15 -110z"/>
<path d="M4608 180 c2 -84 0 -118 -12 -141 -10 -21 -11 -29 -3 -26 27 8 37 54
37 165 0 83 -3 112 -12 112 -10 0 -12 -27 -10 -110z"/>
<path d="M4690 206 c0 -107 18 -136 85 -136 67 0 85 29 85 136 0 46 -4 84 -9
84 -5 0 -6 -20 -4 -44 7 -59 -4 -132 -23 -151 -9 -8 -31 -15 -49 -15 -51 0
-65 27 -65 127 0 49 -4 83 -10 83 -6 0 -10 -35 -10 -84z"/>
<path d="M4918 180 c-3 -104 -2 -110 17 -110 19 0 20 6 17 105 l-3 105 30 0
c21 0 32 -6 36 -21 10 -30 -2 -64 -25 -75 -19 -9 -18 -11 18 -59 21 -27 46
-51 56 -53 14 -3 7 10 -24 47 l-43 51 23 18 c25 20 30 63 10 87 -8 10 -30 15
-61 15 l-48 0 -3 -110z"/>
<path d="M5118 195 c3 -65 0 -100 -8 -110 -10 -13 -8 -15 11 -15 24 0 24 0 21
110 -2 76 -7 110 -15 110 -9 0 -11 -26 -9 -95z"/>
<path d="M5205 180 l0 -110 64 0 c59 0 65 2 98 35 33 33 35 38 31 87 -8 75
-37 98 -126 98 l-67 0 0 -110z m135 90 c25 -13 43 -73 36 -115 -9 -47 -48 -75
-102 -75 l-44 0 0 100 0 100 46 0 c25 0 54 -4 64 -10z"/>
<path d="M5438 180 c-3 -110 -3 -110 21 -110 19 0 21 3 12 14 -8 10 -11 47 -9
110 2 69 0 96 -9 96 -8 0 -13 -34 -15 -110z"/>
</g>
</svg>
